<svg width="21" height="20" viewBox="0 0 21 20" fill="none" xmlns="http://www.w3.org/2000/svg">
<g clip-path="url(#clip0_49_2198)">
<path d="M10.6665 1C15.6298 1 19.6665 5.03667 19.6665 10C19.6665 14.9633 15.6298 19 10.6665 19C5.70317 19 1.6665 14.9633 1.6665 10C1.6665 5.03667 5.70317 1 10.6665 1ZM10.6665 0C5.14317 0 0.666504 4.47667 0.666504 10C0.666504 15.5233 5.14317 20 10.6665 20C16.1898 20 20.6665 15.5233 20.6665 10C20.6665 4.47667 16.1898 0 10.6665 0Z" fill="#221F20"/>
<path fill-rule="evenodd" clip-rule="evenodd" d="M10.6665 2.33333C10.9426 2.33333 11.1665 2.55719 11.1665 2.83333V10.1667C11.1665 10.4428 10.9426 10.6667 10.6665 10.6667C10.3904 10.6667 10.1665 10.4428 10.1665 10.1667V2.83333C10.1665 2.55719 10.3904 2.33333 10.6665 2.33333Z" fill="#221F20"/>
<path fill-rule="evenodd" clip-rule="evenodd" d="M11.0428 9.83741C11.2246 10.0452 11.2036 10.3611 10.9958 10.543L6.99576 14.043C6.78794 14.2248 6.47206 14.2037 6.29022 13.9959C6.10837 13.7881 6.12943 13.4722 6.33725 13.2904L10.3373 9.79038C10.5451 9.60854 10.861 9.6296 11.0428 9.83741Z" fill="#221F20"/>
</g>
<defs>
<clipPath id="clip0_49_2198">
<rect width="20" height="20" fill="white" transform="translate(0.666504)"/>
</clipPath>
</defs>
</svg>
