<svg width="21" height="20" viewBox="0 0 21 20" fill="none" xmlns="http://www.w3.org/2000/svg">
<g clip-path="url(#clip0_49_2204)">
<path d="M10.3335 0C4.8235 0 0.333496 4.49 0.333496 10C0.333496 15.51 4.8235 20 10.3335 20C15.8435 20 20.3335 15.51 20.3335 10C20.3335 4.49 15.8435 0 10.3335 0ZM10.3335 19C5.3735 19 1.3335 14.96 1.3335 10C1.3335 5.04 5.3735 1 10.3335 1C15.2935 1 19.3335 5.04 19.3335 10C19.3335 14.96 15.2935 19 10.3335 19ZM13.3335 8H14.3335C14.3335 5.94 12.8335 4.31 10.8335 4.07V2.5H9.8335V4.06C7.8635 4.27 6.3335 5.66 6.3335 7.35C6.3335 8.96 7.8635 10.28 9.8335 10.48V14.97C8.3935 14.74 7.3335 13.52 7.3335 12H6.3335C6.3335 14.08 7.8335 15.73 9.8335 15.97V17.5H10.8335V15.98C12.8035 15.77 14.3335 14.38 14.3335 12.69C14.3335 11.08 12.8035 9.76 10.8335 9.56V5.07C12.2635 5.3 13.3335 6.5 13.3335 8ZM7.3335 7.35C7.3335 6.2 8.4135 5.24 9.8335 5.06V9.48C8.4135 9.31 7.3335 8.42 7.3335 7.35ZM13.3335 12.69C13.3335 13.84 12.2435 14.8 10.8335 14.98V10.56C12.2535 10.73 13.3335 11.61 13.3335 12.69Z" fill="#221F20"/>
</g>
<defs>
<clipPath id="clip0_49_2204">
<rect width="20" height="20" fill="white" transform="translate(0.333496)"/>
</clipPath>
</defs>
</svg>
