<svg width="60" height="60" viewBox="0 0 60 60" fill="none" xmlns="http://www.w3.org/2000/svg">
<path d="M23 57H37V60H23V57ZM47.53 25.53C47.53 29.72 46.01 33.79 43.24 36.99C41.08 39.49 39.84 41.38 39.43 44.21L38.89 48H21.11L20.57 44.21C20.17 41.38 18.92 39.49 16.76 36.99C13.99 33.79 12.47 29.72 12.47 25.53C12.47 15.86 20.34 8 30 8C39.66 8 47.53 15.87 47.53 25.53ZM44.53 25.53C44.53 17.52 38.01 11 30 11C21.99 11 15.47 17.52 15.47 25.53C15.47 29 16.73 32.38 19.03 35.03C21.44 37.82 23.03 40.26 23.54 43.79L23.71 45H36.29L36.46 43.79C36.96 40.26 38.56 37.82 40.97 35.03C43.27 32.38 44.53 29 44.53 25.53ZM21 54H39V51H21V54ZM23.27 25.22L25.22 41.96L25.51 41.94V42H28.25L26.83 29.78L30.01 30.98L33.19 29.78L31.77 42H34.41L34.79 41.98L36.74 25.23L30.01 27.78L23.28 25.23L23.27 25.22ZM31.5 0H28.5V5H31.5V0ZM50 23.5V26.5H55V23.5H50ZM43.08 9.8L45.2 11.92L48.74 8.38L46.62 6.26L43.08 9.8ZM16.92 9.8L13.38 6.26L11.26 8.38L14.8 11.92L16.92 9.8ZM5 26.5H10V23.5H5V26.5Z" fill="#221F20"/>
</svg>