<svg width="20" height="20" viewBox="0 0 20 20" fill="none" xmlns="http://www.w3.org/2000/svg">
<path d="M17.99 7.26001C17.97 5.33001 17.22 3.52001 15.85 2.16001C14.47 0.780007 12.63 0.0100098 10.67 0.0100098H9.32C7.36 0.0100098 5.52 0.770007 4.14 2.16001C2.76 3.54001 2 5.37001 2 7.33001V10.95C2 11.9 2.57 12.73 3.45 13.08L4.1 13.33L4.5 13.49L4.49 19.97H5.49L5.5 13.88L6.57 14.3L12.49 16.65V19.99H13.49V17.16H14.25C15.2 17.16 15.98 16.38 15.98 15.43L15.99 13.25H17.08C17.33 13.25 17.57 13.13 17.72 12.93C17.87 12.73 17.92 12.46 17.84 12.22L16.67 8.38001L18 8.07001L17.99 7.26001ZM3 10.95V7.33001C3 5.64001 3.66 4.06001 4.85 2.86001C6.04 1.66001 7.63 1.01001 9.32 1.01001H10.67C12.36 1.01001 13.95 1.67001 15.14 2.86001C16.32 4.04001 16.97 5.61001 16.99 7.28001L13.99 8.00001H9.39C8.19 8.00001 7.13 8.80001 6.79 9.95001L5.91 12.99L4.86 12.58L3.81 12.16C3.32 11.96 3 11.49 3 10.95ZM16.8 12.25H15L14.99 15.43C14.99 15.83 14.66 16.16 14.26 16.16H13.93L6.86 13.35L7.77 10.22C7.98 9.50001 8.65 8.99001 9.41 8.99001H14.07L15.71 8.60001L16.8 12.25Z" fill="#221F20"/>
</svg>
