<svg width="129" height="30" viewBox="0 0 129 30" fill="none" xmlns="http://www.w3.org/2000/svg">
<g id="Army Horizontal">
<path d="M32.2525 11.455H20.1967L16.4727 0L12.7486 11.455H0.692871L10.4511 18.545L6.72707 30L16.4853 22.9226L26.2435 30L22.5069 18.545L32.2525 11.455ZM16.4727 19.4029L12.1301 22.5568L13.7838 17.46L9.4412 14.3061H14.8063L16.4727 9.20942L18.1264 14.3061H23.4915L19.1489 17.46L20.8027 22.5568L16.4727 19.4029Z" fill="#221F20"/>
<path d="M48.3601 11.4552V23.0489C48.3601 24.9413 47.0346 26.1019 45.0148 26.1019H41.0383C39.0185 26.1019 37.693 24.9539 37.693 23.0489V11.4552H41.0509V22.4938C41.0509 22.7714 41.2403 22.9859 41.5432 22.9859H44.5351C44.8254 22.9859 45.0274 22.7714 45.0274 22.4938V11.4552H48.3601ZM49.5846 22.7462H52.8921V26.0893H49.5846V22.7462ZM54.1166 16.451V14.1423C54.1166 12.6032 55.2527 11.4425 57.0075 11.4425H61.6656C63.4204 11.4425 64.5565 12.5906 64.5565 14.1423V16.287H61.3248V14.9245C61.3248 14.6469 61.1102 14.4325 60.8325 14.4325H57.8406C57.5629 14.4325 57.3483 14.6469 57.3483 14.9245V16.0599C57.3483 16.2743 57.4619 16.4888 57.7775 16.5645L62.4483 17.9648C64.1147 18.4695 64.5186 19.075 64.5186 20.9169V23.3769C64.5186 24.9034 63.3825 26.0767 61.6278 26.0767H56.9948C55.2401 26.0767 54.104 24.9034 54.104 23.3769V21.0052H57.3357V22.5948C57.3357 22.8723 57.5503 23.0868 57.828 23.0868H60.8198C61.0976 23.0868 61.3122 22.8723 61.3122 22.5948V21.2827C61.3122 21.0683 61.1607 20.879 60.883 20.7907L56.2121 19.3904C54.5205 18.8984 54.1166 18.2928 54.1166 16.451ZM65.7936 22.7462H69.1011V26.0893H65.7936V22.7462ZM82.2551 23.7428H77.2309L76.587 26.0893H73.1281L77.4707 11.4552H82.2425L86.4084 26.0893H82.8863L82.2551 23.7428ZM81.4598 20.7907L79.7556 14.4955L78.0388 20.7907H81.4598ZM97.2523 20.0843L96.5075 20.715L99.0954 26.0893H95.3966L93.1495 21.1187H91.1928V26.0893H87.8223V11.4552H95.2703C97.1513 11.4552 98.4137 12.5653 98.4137 14.2558V17.1574C98.4263 18.6082 98.2748 19.2516 97.2523 20.0843ZM95.0684 17.6873V15.0128C95.0684 14.7352 94.8537 14.5208 94.576 14.5208H91.1928V18.1793H94.576C94.8537 18.1793 95.0684 17.9648 95.0684 17.6873ZM109.775 11.4552H114.042V26.0893H110.81V17.2331L107.743 26.0893H106.821L103.766 17.2331V26.0893H100.661V11.4552H104.978L107.389 19.1507L109.775 11.4552ZM128.307 11.4552L123.384 20.4627V26.0893H120.038V20.4753L115.241 11.4425H119.155L121.856 16.8925L124.532 11.4552H128.307Z" fill="#221F20"/>
</g>
</svg>
