<svg width="16" height="20" viewBox="0 0 16 20" fill="none" xmlns="http://www.w3.org/2000/svg">
<path id="Icon" d="M15.99 7.26001C15.97 5.33001 15.22 3.52001 13.85 2.16001C12.47 0.780007 10.63 0.0100098 8.67 0.0100098H7.32C5.36 0.0100098 3.52 0.770007 2.14 2.16001C0.759999 3.54001 0 5.37001 0 7.33001V10.95C0 11.9 0.570001 12.73 1.45 13.08L2.1 13.33L2.5 13.49L2.49 19.97H3.49L3.5 13.88L4.57 14.3L10.49 16.65V19.99H11.49V17.16H12.25C13.2 17.16 13.98 16.38 13.98 15.43L13.99 13.25H15.08C15.33 13.25 15.57 13.13 15.72 12.93C15.87 12.73 15.92 12.46 15.84 12.22L14.67 8.38001L16 8.07001L15.99 7.26001ZM1 10.95V7.33001C1 5.64001 1.66 4.06001 2.85 2.86001C4.04 1.66001 5.63 1.01001 7.32 1.01001H8.67C10.36 1.01001 11.95 1.67001 13.14 2.86001C14.32 4.04001 14.97 5.61001 14.99 7.28001L11.99 8.00001H7.39C6.19 8.00001 5.13 8.80001 4.79 9.95001L3.91 12.99L2.86 12.58L1.81 12.16C1.32 11.96 1 11.49 1 10.95ZM14.8 12.25H13L12.99 15.43C12.99 15.83 12.66 16.16 12.26 16.16H11.93L4.86 13.35L5.77 10.22C5.98 9.50001 6.65 8.99001 7.41 8.99001H12.07L13.71 8.60001L14.8 12.25Z" fill="#FCF6EB"/>
</svg>
